<?xml version="1.0" encoding="UTF-8" standalone="no"?>
<!DOCTYPE svg PUBLIC "-//W3C//DTD SVG 1.1//EN" "http://www.w3.org/Graphics/SVG/1.1/DTD/svg11.dtd">
<svg width="100%" height="100%" viewBox="0 0 1966 576" version="1.1" xmlns="http://www.w3.org/2000/svg" xmlns:xlink="http://www.w3.org/1999/xlink" xml:space="preserve" xmlns:serif="http://www.serif.com/" style="fill-rule:evenodd;clip-rule:evenodd;stroke-linejoin:round;stroke-miterlimit:2;">
    <g id="PARKING" transform="matrix(0.28925,0,0,0.28925,-112.929,-117.545)">
        <g transform="matrix(0.851759,0,0,1,47.8038,12.6059)">
            <path d="M7205.33,2385.13L402.245,2385.13L402.245,402.319L7189.04,402.319L7199.16,393.772L8378.16,1389.45L7205.33,2379.92L7205.33,2385.13Z" style="fill:rgb(128,128,128);"/>
        </g>
        <g transform="matrix(1.1686,0,0,1.1686,-150.962,-144.657)">
            <path d="M702.12,922.222C702.12,890.218 680.517,874.216 637.313,874.216C610.11,874.216 596.508,865.215 596.508,847.213C596.508,830.011 610.11,821.41 637.313,821.41C652.914,821.41 670.316,823.211 689.518,826.811C708.721,830.011 724.922,831.611 738.124,831.611C749.325,831.611 768.727,829.411 796.33,825.011C823.934,820.21 856.937,817.81 895.342,817.81C989.752,817.81 1062.16,839.612 1112.57,883.217C1163.37,926.422 1188.77,978.028 1188.77,1038.04C1188.77,1085.24 1176.97,1121.44 1153.37,1146.65C1130.17,1171.85 1097.76,1194.25 1056.16,1213.85C1014.96,1233.46 960.949,1243.26 894.141,1243.26C855.337,1243.26 835.935,1231.66 835.935,1208.45C835.935,1202.45 838.535,1197.65 843.736,1194.05C849.336,1190.05 856.737,1188.05 865.938,1188.05C867.938,1188.05 874.539,1188.45 885.74,1189.25C896.942,1190.05 907.143,1190.45 916.344,1190.45C959.549,1190.45 995.153,1177.05 1023.16,1150.25C1051.56,1123.44 1065.76,1086.04 1065.76,1038.04C1065.76,992.83 1048.36,953.025 1013.56,918.621C978.751,884.217 931.946,867.015 873.139,867.015C851.937,867.015 836.735,870.016 827.534,876.016C818.733,881.617 813.132,890.018 810.732,901.219C808.732,912.02 807.732,929.622 807.732,954.025L807.732,1591.9C807.732,1623.1 827.934,1638.7 868.338,1638.7C887.941,1638.7 900.942,1641.3 907.343,1646.5C914.144,1651.7 917.544,1659.3 917.544,1669.31C917.544,1685.71 901.142,1693.91 868.338,1693.91C857.937,1693.91 838.335,1690.11 809.532,1682.51C781.129,1674.51 762.927,1670.51 754.926,1670.51C742.924,1670.51 725.122,1674.51 701.52,1682.51C678.317,1690.11 662.115,1693.91 652.914,1693.91C618.511,1693.91 601.309,1683.71 601.309,1663.31C601.309,1657.7 603.109,1653.1 606.709,1649.5C610.71,1645.5 623.711,1642.7 645.714,1641.1C668.116,1639.1 683.118,1631.7 690.719,1618.9C698.319,1605.7 702.12,1590.3 702.12,1572.69L702.12,922.222Z" style="fill-rule:nonzero;"/>
            <path d="M1632.22,1035.63C1624.22,1017.23 1618.22,1008.03 1614.22,1008.03C1609.42,1008.03 1602.22,1020.83 1592.62,1046.44L1464.2,1339.87L1353.19,1587.1C1349.99,1594.7 1348.39,1601.3 1348.39,1606.9C1348.39,1612.9 1350.59,1618.3 1354.99,1623.1C1359.79,1627.9 1370.8,1632.7 1388,1637.5C1405.2,1642.3 1416,1647.1 1420.4,1651.9C1424.8,1656.7 1427,1662.1 1427,1668.11C1427,1686.51 1415,1695.71 1391,1695.71C1385.4,1695.71 1371.6,1693.91 1349.59,1690.31C1327.99,1687.11 1309.99,1685.51 1295.59,1685.51C1280.79,1685.51 1265.58,1687.11 1249.98,1690.31C1234.38,1693.51 1222.98,1695.11 1215.78,1695.11C1205.78,1695.11 1197.58,1692.31 1191.17,1686.71C1184.77,1681.51 1181.57,1675.31 1181.57,1668.11C1181.57,1657.7 1183.57,1650.9 1187.57,1647.7C1191.58,1644.5 1198.98,1642.1 1209.78,1640.5C1240.98,1635.3 1262.38,1623.7 1273.98,1605.7C1285.99,1587.3 1316.39,1522.69 1365.19,1411.88L1510.41,1087.84C1546.01,1010.23 1568.82,958.826 1578.82,933.623C1589.22,908.02 1594.42,888.218 1594.42,874.216C1594.42,869.416 1592.62,860.815 1589.02,848.413C1585.82,835.612 1584.22,826.411 1584.22,820.81C1584.22,809.209 1590.42,803.408 1602.82,803.408C1623.22,803.408 1639.62,812.009 1652.03,829.211C1664.43,846.413 1681.03,878.817 1701.83,926.422L1868.05,1302.06C1928.46,1438.88 1966.66,1523.49 1982.66,1555.89C1998.66,1588.3 2011.67,1609.3 2021.67,1618.9C2032.07,1628.1 2044.27,1634.9 2058.27,1639.3C2072.67,1643.7 2082.47,1648.1 2087.68,1652.5C2092.88,1656.5 2095.48,1663.51 2095.48,1673.51C2095.48,1687.11 2082.87,1693.91 2057.67,1693.91C2049.27,1693.91 2033.87,1692.71 2011.47,1690.31C1989.46,1687.91 1967.46,1686.71 1945.46,1686.71C1923.46,1686.71 1900.45,1688.11 1876.45,1690.91C1852.85,1693.71 1836.65,1695.11 1827.85,1695.11C1814.24,1695.11 1803.44,1692.71 1795.44,1687.91C1787.44,1683.51 1783.44,1677.31 1783.44,1669.31C1783.44,1662.5 1785.84,1656.9 1790.64,1652.5C1795.44,1648.1 1808.24,1644.9 1829.05,1642.9C1850.25,1640.9 1863.85,1636.5 1869.85,1629.7C1876.25,1622.5 1879.45,1613.7 1879.45,1603.3C1879.45,1592.1 1868.05,1561.29 1845.25,1510.89C1822.44,1460.08 1808.24,1433.08 1802.64,1429.88C1797.04,1426.68 1786.24,1425.08 1770.24,1425.08L1502.01,1425.08C1491.61,1425.08 1482.21,1421.88 1473.81,1415.48C1465.4,1408.68 1461.2,1400.88 1461.2,1392.07C1461.2,1385.27 1464.4,1379.27 1470.81,1374.07C1477.61,1368.87 1485.21,1366.27 1493.61,1366.27L1751.64,1366.27C1766.04,1366.27 1773.24,1363.67 1773.24,1358.47C1773.24,1355.27 1770.44,1347.47 1764.84,1335.07L1632.22,1035.63Z" style="fill-rule:nonzero;"/>
            <path d="M2190.29,922.222C2190.29,891.818 2169.48,875.416 2127.88,873.016C2099.08,871.416 2084.68,862.015 2084.68,844.813C2084.68,826.811 2101.08,817.81 2133.88,817.81C2149.48,817.81 2166.68,819.21 2185.49,822.01C2204.29,824.811 2220.29,826.211 2233.49,826.211C2242.29,826.211 2266.7,823.411 2306.7,817.81C2346.7,812.209 2377.51,809.409 2399.11,809.409C2481.52,809.409 2548.33,830.611 2599.53,873.016C2651.14,915.421 2676.94,970.427 2676.94,1038.04C2676.94,1081.24 2664.14,1117.04 2638.54,1145.45C2613.33,1173.45 2569.73,1199.45 2507.72,1223.45C2496.12,1227.86 2490.32,1232.46 2490.32,1237.26C2490.32,1240.46 2492.72,1245.66 2497.52,1252.86C2519.52,1284.06 2560.93,1351.67 2621.74,1455.68C2682.54,1559.29 2714.95,1613.5 2718.95,1618.3C2722.95,1622.7 2733.55,1627.9 2750.75,1633.9C2767.95,1639.5 2778.75,1645.3 2783.15,1651.3C2787.95,1656.9 2790.35,1663.31 2790.35,1670.51C2790.35,1679.71 2784.35,1687.51 2772.35,1693.91C2760.35,1700.71 2750.75,1704.11 2743.55,1704.11C2725.15,1704.11 2702.74,1697.11 2676.34,1683.11C2649.94,1668.7 2632.54,1656.5 2624.14,1646.5C2608.53,1626.5 2557.53,1544.89 2471.12,1401.67C2430.71,1334.87 2407.51,1297.26 2401.51,1288.86C2379.91,1257.66 2358.7,1237.66 2337.9,1228.86C2332.7,1226.86 2329.3,1224.86 2327.7,1222.86C2326.1,1220.45 2325.3,1215.65 2325.3,1208.45C2325.3,1191.25 2335.7,1182.65 2356.51,1182.65C2358.51,1182.65 2364.11,1183.45 2373.31,1185.05C2382.51,1186.25 2391.51,1186.85 2400.31,1186.85C2444.32,1186.85 2481.12,1172.65 2510.72,1144.25C2540.33,1115.84 2555.13,1076.24 2555.13,1025.43C2555.13,989.429 2538.53,953.625 2505.32,918.021C2472.12,882.417 2426.11,864.615 2367.31,864.615C2345.3,864.615 2329.1,867.215 2318.7,872.416C2308.7,877.217 2302.3,883.417 2299.5,891.018C2297.1,898.219 2295.9,907.82 2295.9,919.821L2295.9,1591.9C2295.9,1605.1 2301.5,1615.9 2312.7,1624.3C2324.3,1632.3 2339.3,1636.3 2357.7,1636.3C2377.71,1636.3 2391.11,1638.9 2397.91,1644.1C2404.71,1649.3 2408.11,1656.9 2408.11,1666.9C2408.11,1676.51 2403.71,1684.51 2394.91,1690.91C2386.51,1697.31 2373.71,1700.51 2356.51,1700.51C2340.9,1700.51 2321.7,1695.91 2298.9,1686.71C2276.5,1677.91 2258.69,1673.51 2245.49,1673.51C2234.29,1673.51 2217.49,1677.71 2195.09,1686.11C2172.68,1694.91 2155.08,1699.31 2142.28,1699.31C2105.48,1699.31 2087.07,1687.71 2087.07,1664.51C2087.07,1655.7 2090.07,1649.3 2096.08,1645.3C2102.08,1640.9 2117.08,1638.7 2141.08,1638.7C2155.48,1638.7 2167.28,1635.5 2176.49,1629.1C2185.69,1622.7 2190.29,1614.9 2190.29,1605.7L2190.29,922.222Z" style="fill-rule:nonzero;"/>
            <path d="M3175,1158.05C3167.8,1168.05 3164.2,1175.25 3164.2,1179.65C3164.2,1182.85 3165.8,1186.65 3169,1191.05L3477.43,1606.3C3487.03,1616.7 3497.63,1624.3 3509.23,1629.1C3521.24,1633.9 3531.04,1636.3 3538.64,1636.3C3546.64,1636.3 3553.84,1638.5 3560.24,1642.9C3566.64,1647.3 3569.84,1652.9 3569.84,1659.7C3569.84,1670.51 3564.84,1678.91 3554.84,1684.91C3545.24,1690.91 3533.04,1693.91 3518.24,1693.91C3487.03,1693.91 3452.83,1681.91 3415.62,1657.9C3378.82,1633.5 3345.42,1601.3 3315.41,1561.29L3101.19,1278.66C3096.79,1273.06 3093.59,1270.26 3091.59,1270.26C3089.59,1270.26 3086.79,1272.66 3083.19,1277.46L3005.18,1377.07C3001.98,1381.47 3000.38,1386.87 3000.38,1393.27L3000.38,1590.7C3000.38,1601.5 3003.18,1610.9 3008.78,1618.9C3014.78,1626.9 3027.18,1632.7 3045.98,1636.3C3064.78,1639.9 3075.99,1643.9 3079.59,1648.3C3083.59,1652.7 3085.59,1658.1 3085.59,1664.51C3085.59,1671.71 3080.59,1678.31 3070.59,1684.31C3060.58,1689.91 3045.78,1692.71 3026.18,1692.71C3016.98,1692.71 3003.98,1690.71 2987.18,1686.71C2970.37,1682.71 2955.57,1680.71 2942.77,1680.71C2925.17,1680.71 2905.57,1683.11 2883.96,1687.91C2862.76,1692.71 2847.16,1695.11 2837.16,1695.11C2827.56,1695.11 2818.36,1692.11 2809.56,1686.11C2800.76,1680.51 2796.35,1672.91 2796.35,1663.31C2796.35,1656.5 2798.36,1650.9 2802.36,1646.5C2806.36,1641.7 2819.36,1638.5 2841.36,1636.9C2863.36,1634.9 2877.76,1627.7 2884.56,1615.3C2891.37,1602.5 2894.76,1587.9 2894.76,1571.49L2894.76,943.224C2894.76,927.622 2891.37,913.821 2884.56,901.819C2878.16,889.818 2864.16,882.617 2842.56,880.217C2821.36,877.817 2808.76,874.416 2804.76,870.016C2800.76,865.215 2798.76,859.415 2798.76,852.614C2798.76,845.813 2803.16,838.812 2811.96,831.611C2820.76,824.011 2832.76,820.21 2847.96,820.21C2863.16,820.21 2881.76,822.61 2903.77,827.411C2926.17,831.811 2944.97,834.012 2960.17,834.012C2969.77,834.012 2981.97,831.611 2996.78,826.811C3011.98,821.61 3029.18,819.01 3048.38,819.01C3063.98,819.01 3076.59,822.01 3086.19,828.011C3096.19,833.612 3101.19,840.412 3101.19,848.413C3101.19,854.414 3098.79,859.815 3093.99,864.615C3089.19,869.016 3077.99,873.616 3060.38,878.417C3042.78,882.817 3030.38,886.818 3023.18,890.418C3016.38,893.618 3010.78,900.019 3006.38,909.62C3002.38,919.221 3000.38,933.623 3000.38,952.825L3000.38,1277.46L3002.18,1289.46L3010.58,1281.06L3277.01,931.223C3290.21,914.821 3296.81,902.819 3296.81,895.219C3296.81,890.418 3294.61,886.618 3290.21,883.817C3286.21,880.617 3275.61,878.217 3258.41,876.616C3241.2,875.016 3230,872.016 3224.8,867.615C3219.6,862.815 3217,856.814 3217,849.613C3217,840.412 3221.2,833.012 3229.6,827.411C3238.4,821.81 3248.81,819.01 3260.81,819.01C3271.61,819.01 3285.41,820.61 3302.21,823.811C3319.41,826.611 3330.61,828.011 3335.82,828.011C3343.02,828.011 3356.02,826.411 3374.82,823.211C3394.02,819.61 3408.62,817.81 3418.62,817.81C3429.43,817.81 3438.23,820.81 3445.03,826.811C3451.83,832.812 3455.23,840.412 3455.23,849.613C3455.23,854.814 3453.43,859.215 3449.83,862.815C3446.63,866.415 3433.63,871.616 3410.82,878.417C3388.02,885.217 3370.42,897.019 3358.02,913.821L3175,1158.05Z" style="fill-rule:nonzero;"/>
            <path d="M3679.05,945.624C3679.05,922.422 3674.45,906.62 3665.25,898.219C3656.45,889.418 3644.85,883.017 3630.45,879.017C3616.45,874.616 3606.64,870.416 3601.04,866.415C3595.84,862.415 3593.24,855.214 3593.24,844.813C3593.24,838.812 3595.84,833.812 3601.04,829.811C3606.64,825.811 3613.05,823.811 3620.25,823.811C3632.65,823.811 3651.45,826.011 3676.65,830.411C3701.86,834.412 3721.06,836.412 3734.26,836.412C3746.26,836.412 3763.86,834.612 3787.07,831.011C3810.67,827.011 3828.27,825.011 3839.87,825.011C3859.87,825.011 3869.88,833.212 3869.88,849.613C3869.88,859.615 3867.27,866.415 3862.07,870.016C3856.87,873.616 3846.27,877.017 3830.27,880.217C3814.27,883.017 3802.67,891.418 3795.47,905.42C3788.26,919.021 3784.66,939.023 3784.66,965.426L3784.66,1588.3C3784.66,1599.9 3787.26,1610.3 3792.47,1619.5C3798.07,1628.3 3810.07,1635.3 3828.47,1640.5C3847.27,1645.3 3858.67,1650.5 3862.67,1656.1C3866.67,1661.3 3868.67,1667.51 3868.67,1674.71C3868.67,1689.11 3856.27,1696.31 3831.47,1696.31C3820.27,1696.31 3803.87,1694.31 3782.26,1690.31C3760.66,1686.31 3744.26,1684.31 3733.06,1684.31C3722.66,1684.31 3706.66,1685.91 3685.05,1689.11C3663.85,1692.31 3647.85,1693.91 3637.05,1693.91C3607.05,1693.91 3592.04,1684.51 3592.04,1665.7C3592.04,1660.5 3593.64,1655.9 3596.84,1651.9C3600.04,1647.9 3611.25,1644.3 3630.45,1641.1C3650.05,1637.5 3663.05,1628.9 3669.45,1615.3C3675.85,1601.3 3679.05,1585.7 3679.05,1568.49L3679.05,945.624Z" style="fill-rule:nonzero;"/>
            <path d="M4546.75,932.423C4546.75,916.021 4540.95,903.019 4529.35,893.418C4518.15,883.417 4503.75,878.417 4486.14,878.417C4472.54,878.417 4461.54,876.016 4453.14,871.216C4444.74,866.415 4440.54,860.215 4440.54,852.614C4440.54,843.413 4444.34,836.212 4451.94,831.011C4459.94,825.411 4468.54,822.61 4477.74,822.61C4482.54,822.61 4498.74,825.211 4526.35,830.411C4554.35,835.212 4572.95,837.612 4582.15,837.612C4594.16,837.612 4609.96,835.812 4629.56,832.212C4649.56,828.211 4663.96,826.211 4672.77,826.211C4696.77,826.211 4708.77,835.812 4708.77,855.014C4708.77,870.616 4696.77,878.417 4672.77,878.417C4651.96,878.417 4636.56,881.617 4626.56,888.018C4616.96,894.418 4610.96,902.219 4608.56,911.42C4606.56,920.221 4605.56,931.623 4605.56,945.624L4605.56,1544.49C4605.56,1584.5 4609.76,1615.3 4618.16,1636.9C4626.96,1658.5 4631.36,1675.91 4631.36,1689.11C4631.36,1701.51 4625.96,1707.71 4615.16,1707.71C4607.56,1707.71 4601.76,1706.11 4597.76,1702.91C4593.76,1699.71 4587.76,1692.71 4579.75,1681.91L4080.5,1020.63C4075.3,1013.83 4070.5,1010.43 4066.1,1010.43C4060.1,1010.43 4057.1,1018.03 4057.1,1033.23L4057.1,1588.3C4057.1,1605.1 4064.1,1618.5 4078.1,1628.5C4092.5,1638.5 4106.1,1643.5 4118.9,1643.5C4150.91,1643.5 4166.91,1653.9 4166.91,1674.71C4166.91,1681.11 4165.11,1686.31 4161.51,1690.31C4157.91,1694.31 4149.51,1696.31 4136.3,1696.31C4123.5,1696.31 4104.3,1694.51 4078.7,1690.91C4053.1,1687.31 4036.49,1685.51 4028.89,1685.51C4018.49,1685.51 4000.89,1687.31 3976.09,1690.91C3951.28,1694.51 3935.68,1696.31 3929.28,1696.31C3908.88,1696.31 3898.68,1686.91 3898.68,1668.11C3898.68,1652.5 3910.68,1644.7 3934.68,1644.7C3954.28,1644.7 3969.89,1639.3 3981.49,1628.5C3993.49,1617.3 3999.49,1601.5 3999.49,1581.1L3999.49,940.824C3999.49,921.221 3994.49,905.62 3984.49,894.018C3974.49,882.417 3961.89,876.616 3946.68,876.616C3926.28,876.616 3912.48,874.416 3905.28,870.016C3898.48,865.615 3895.08,858.814 3895.08,849.613C3895.08,833.212 3905.28,825.011 3925.68,825.011C3929.28,825.011 3938.28,826.211 3952.68,828.611C3967.09,830.611 3979.09,831.611 3988.69,831.611C3995.89,831.611 4004.29,830.611 4013.89,828.611C4023.89,826.211 4032.29,825.011 4039.09,825.011C4050.7,825.011 4064.9,834.412 4081.7,853.214C4098.9,872.016 4157.11,947.824 4256.32,1080.64L4520.95,1434.68C4525.35,1440.68 4529.55,1443.68 4533.55,1443.68C4542.35,1443.68 4546.75,1432.88 4546.75,1411.28L4546.75,932.423Z" style="fill-rule:nonzero;"/>
            <path d="M5493.66,1358.47C5507.66,1358.47 5517.26,1359.87 5522.46,1362.67C5528.06,1365.07 5530.86,1370.67 5530.86,1379.47C5530.86,1388.27 5525.86,1397.67 5515.86,1407.68C5506.26,1417.28 5501.46,1430.88 5501.46,1448.48L5501.46,1497.69C5501.46,1510.89 5505.26,1521.29 5512.86,1528.89C5520.86,1536.49 5524.86,1543.29 5524.86,1549.29C5524.86,1565.69 5507.26,1586.5 5472.05,1611.7C5437.25,1636.9 5393.24,1658.5 5340.04,1676.51C5286.83,1694.11 5235.63,1702.91 5186.42,1702.91C5061.61,1702.91 4954.2,1661.7 4864.19,1579.3C4774.58,1496.49 4729.77,1386.47 4729.77,1249.26C4729.77,1169.25 4747.97,1094.84 4784.38,1026.03C4821.18,957.226 4872.19,903.62 4937.39,865.215C5002.6,826.411 5075.81,807.009 5157.02,807.009C5235.83,807.009 5308.84,821.41 5376.04,850.214C5443.25,878.617 5476.86,910.42 5476.86,945.624L5476.86,993.63C5476.86,998.43 5477.86,1005.83 5479.86,1015.83C5481.86,1025.43 5482.86,1034.43 5482.86,1042.84C5482.86,1050.84 5480.86,1057.84 5476.86,1063.84C5473.25,1069.44 5468.25,1072.24 5461.85,1072.24C5455.05,1072.24 5448.65,1069.64 5442.65,1064.44C5436.65,1058.84 5427.85,1043.84 5416.25,1019.43C5394.24,973.827 5371.24,940.824 5347.24,920.421C5305.23,884.817 5246.83,867.015 5172.02,867.015C5077.21,867.015 5001.2,901.619 4943.99,970.827C4887.19,1040.04 4858.78,1130.85 4858.78,1243.26C4858.78,1371.27 4889.59,1470.08 4951.2,1539.69C5012.8,1608.9 5092.21,1643.5 5189.42,1643.5C5239.83,1643.5 5286.63,1633.5 5329.84,1613.5C5373.04,1593.1 5394.65,1563.49 5394.65,1524.69L5394.65,1443.68C5394.65,1424.08 5376.24,1414.28 5339.44,1414.28C5333.04,1414.28 5323.04,1414.68 5309.44,1415.48C5296.23,1416.28 5286.83,1416.68 5281.23,1416.68C5266.03,1416.68 5254.23,1413.68 5245.83,1407.68C5237.43,1401.67 5233.23,1393.87 5233.23,1384.27C5233.23,1367.07 5244.83,1358.47 5268.03,1358.47L5493.66,1358.47Z" style="fill-rule:nonzero;"/>
        </g>
    </g>
</svg>
